<svg width="180" height="180" viewBox="0 0 180 180" fill="none" xmlns="http://www.w3.org/2000/svg">
<circle cx="90" cy="90" r="90" fill="url(#paint0_linear_357_2)"/>
<path d="M66.3245 41.1905C66.5088 40.6958 66.8399 40.2693 67.2734 39.9681C67.7069 39.667 68.2222 39.5056 68.75 39.5056C69.2779 39.5056 69.7932 39.667 70.2267 39.9681C70.6602 40.2693 70.9913 40.6958 71.1755 41.1905L74.9135 51.281C75.4385 52.6985 76.5515 53.8168 77.969 54.3418L88.0596 58.0693C88.556 58.2525 88.9843 58.5835 89.2868 59.0176C89.5894 59.4518 89.7516 59.9682 89.7516 60.4974C89.7516 61.0265 89.5894 61.543 89.2868 61.9771C88.9843 62.4113 88.556 62.7423 88.0596 62.9255L77.969 66.6635C77.2721 66.9268 76.6392 67.3355 76.1124 67.8623C75.5855 68.3891 75.1769 69.0221 74.9135 69.719L71.1755 79.8095C70.9913 80.3042 70.6602 80.7307 70.2267 81.0319C69.7932 81.333 69.2779 81.4944 68.75 81.4944C68.2222 81.4944 67.7069 81.333 67.2734 81.0319C66.8399 80.7307 66.5088 80.3042 66.3245 79.8095L62.5918 69.719C62.3285 69.0206 61.9193 68.3863 61.3915 67.8585C60.8637 67.3307 60.2295 66.9215 59.531 66.6583L49.4405 62.9308C48.9441 62.7475 48.5158 62.4165 48.2133 61.9824C47.9107 61.5482 47.7485 61.0318 47.7485 60.5026C47.7485 59.9735 47.9107 59.457 48.2133 59.0229C48.5158 58.5887 48.9441 58.2577 49.4405 58.0745L59.531 54.3418C60.9485 53.8168 62.0668 52.6985 62.5918 51.281L66.3245 41.1905Z" fill="white" stroke="#418026" stroke-width="2"/>
<path d="M107.621 79.6152L115.407 87.401ZM63.5 144.5H71.3645C77.7275 144.5 80.909 144.5 83.7703 143.314C86.6315 142.127 88.8838 139.88 93.383 135.376L136.17 92.5933C139 89.7635 140.413 88.3512 141.169 86.8182C141.877 85.3858 142.245 83.8093 142.245 82.2114C142.245 80.6134 141.877 79.037 141.169 77.6045C140.413 76.0768 139 74.6645 136.17 71.8295C133.335 68.9997 131.923 67.5875 130.396 66.8315C128.962 66.1225 127.385 65.7536 125.786 65.7536C124.187 65.7536 122.61 66.1225 121.177 66.8315C119.654 67.5875 118.236 68.9997 115.401 71.8295L72.6192 114.617C68.12 119.116 65.873 121.369 64.6865 124.225C63.5 127.096 63.5 130.273 63.5 136.641V144.5Z" fill="white"/>
<path d="M107.621 79.6152L115.407 87.401M63.5 144.5H71.3645C77.7275 144.5 80.909 144.5 83.7703 143.314C86.6315 142.127 88.8838 139.88 93.383 135.376L136.17 92.5933C139 89.7635 140.413 88.3512 141.169 86.8182C141.877 85.3858 142.245 83.8093 142.245 82.2114C142.245 80.6134 141.877 79.037 141.169 77.6045C140.413 76.0768 139 74.6645 136.17 71.8295C133.335 68.9997 131.923 67.5875 130.396 66.8315C128.962 66.1225 127.385 65.7536 125.786 65.7536C124.187 65.7536 122.61 66.1225 121.177 66.8315C119.654 67.5875 118.236 68.9997 115.401 71.8295L72.6192 114.617C68.12 119.116 65.873 121.369 64.6865 124.225C63.5 127.096 63.5 130.273 63.5 136.641V144.5Z" stroke="#418026" stroke-width="2" stroke-linecap="round" stroke-linejoin="round"/>
<defs>
<linearGradient id="paint0_linear_357_2" x1="90" y1="0" x2="90" y2="180" gradientUnits="userSpaceOnUse">
<stop stop-color="#27FF4A"/>
<stop offset="1" stop-color="#658917"/>
</linearGradient>
</defs>
</svg>
